<svg xmlns="http://www.w3.org/2000/svg" width="1200" height="360" viewBox="0 0 1200 360" role="img" aria-label="CH33ZE Jeffrey PersonalTechWiz">
  <defs>
    <linearGradient id="bg" x1="0" y1="0" x2="1" y2="1">
      <stop offset="0%" stop-color="#0b0713"/>
      <stop offset="45%" stop-color="#1d102f"/>
      <stop offset="100%" stop-color="#2e1065"/>
    </linearGradient>
    <linearGradient id="line" x1="0" y1="0" x2="1" y2="0">
      <stop offset="0%" stop-color="#a78bfa" stop-opacity="0"/>
      <stop offset="50%" stop-color="#c4b5fd" stop-opacity="0.95"/>
      <stop offset="100%" stop-color="#a78bfa" stop-opacity="0"/>
    </linearGradient>
    <filter id="glow" x="-20%" y="-20%" width="140%" height="140%">
      <feGaussianBlur stdDeviation="5" result="blur"/>
      <feMerge>
        <feMergeNode in="blur"/>
        <feMergeNode in="SourceGraphic"/>
      </feMerge>
    </filter>
    <pattern id="grid" width="48" height="48" patternUnits="userSpaceOnUse">
      <path d="M 48 0 L 0 0 0 48" fill="none" stroke="#c4b5fd" stroke-opacity="0.07" stroke-width="1"/>
    </pattern>
  </defs>
  <rect width="1200" height="360" rx="32" fill="url(#bg)"/>
  <rect width="1200" height="360" rx="32" fill="url(#grid)"/>
  <circle cx="1040" cy="80" r="150" fill="#7c3aed" opacity="0.16" filter="url(#glow)"/>
  <circle cx="150" cy="320" r="190" fill="#4c1d95" opacity="0.24" filter="url(#glow)"/>
  <path d="M70 268 C250 210, 380 320, 560 246 S880 182, 1130 238" fill="none" stroke="url(#line)" stroke-width="3" opacity="0.8"/>

  <text x="76" y="126" font-family="Inter, Segoe UI, Arial, sans-serif" font-size="30" font-weight="700" fill="#c4b5fd" letter-spacing="4">PERSONALTECHWIZ</text>
  <text x="72" y="205" font-family="Inter, Segoe UI, Arial, sans-serif" font-size="82" font-weight="900" fill="#f5f3ff">CH33ZE Jeffrey</text>
  <text x="78" y="257" font-family="Inter, Segoe UI, Arial, sans-serif" font-size="28" font-weight="600" fill="#ddd6fe">homelab • repair • dashboards • automation • media tools</text>

  <g transform="translate(80 292)">
    <rect x="0" y="0" width="274" height="40" rx="20" fill="#21123a" stroke="#8b5cf6" stroke-opacity="0.75"/>
    <text x="22" y="27" font-family="Inter, Segoe UI, Arial, sans-serif" font-size="18" font-weight="700" fill="#f5f3ff">personaltechwiz.com</text>
  </g>
  <g transform="translate(378 292)">
    <rect x="0" y="0" width="210" height="40" rx="20" fill="#21123a" stroke="#7c3aed" stroke-opacity="0.75"/>
    <text x="22" y="27" font-family="Inter, Segoe UI, Arial, sans-serif" font-size="18" font-weight="700" fill="#f5f3ff">CH33ZE projects</text>
  </g>
</svg>
